<?xml version="1.0" standalone="no"?>
<!DOCTYPE svg PUBLIC "-//W3C//DTD SVG 20010904//EN"
 "http://www.w3.org/TR/2001/REC-SVG-20010904/DTD/svg10.dtd">
<svg version="1.0" xmlns="http://www.w3.org/2000/svg"
 width="225.000000pt" height="225.000000pt" viewBox="0 0 225.000000 225.000000"
 preserveAspectRatio="xMidYMid meet">

<g transform="translate(0.000000,225.000000) scale(0.100000,-0.100000)"
fill="#000000" stroke="none">
<path d="M1025 1741 c-3 -11 -3 -30 0 -43 5 -20 -2 -32 -39 -66 -25 -24 -57
-48 -71 -54 -14 -6 -25 -17 -25 -24 0 -20 44 -45 90 -51 67 -9 50 -42 -68
-132 -83 -64 -93 -131 -23 -152 33 -10 49 -8 107 9 38 12 77 27 86 34 23 17
34 110 19 165 -13 47 -29 60 -104 83 -27 8 -47 20 -45 25 4 14 97 6 130 -11
16 -9 28 -10 28 -4 0 5 7 10 15 10 8 0 22 -21 32 -49 9 -27 20 -48 24 -45 12
7 20 -32 14 -63 -4 -23 -2 -21 15 12 50 101 9 213 -119 324 -53 46 -60 50 -66
32z m5 -151 c0 -5 -9 -10 -20 -10 -11 0 -20 5 -20 10 0 6 9 10 20 10 11 0 20
-4 20 -10z"/>
<path d="M1205 1272 c-22 -9 -78 -36 -125 -59 -47 -24 -107 -45 -135 -49 -43
-5 -55 -2 -87 20 -43 29 -47 22 -28 -46 15 -52 53 -94 105 -114 58 -22 104
-15 225 32 111 43 177 49 210 19 12 -11 19 -27 16 -38 -3 -14 -2 -16 9 -7 23
19 38 79 33 137 -4 44 -11 60 -36 86 -26 26 -40 31 -89 34 -39 2 -71 -3 -98
-15z m158 -72 c10 -10 3 -11 -34 -6 -42 6 -108 -8 -183 -39 -43 -18 -2 18 48
41 39 19 63 24 104 21 29 -2 58 -9 65 -17z"/>
<path d="M406 773 c24 -60 34 -103 34 -140 0 -29 5 -53 10 -53 6 0 10 20 10
44 0 26 14 80 35 135 39 101 40 104 23 99 -6 -2 -21 -32 -33 -67 -11 -34 -24
-63 -29 -64 -5 -1 -20 28 -35 66 -14 37 -31 67 -37 67 -8 0 1 -34 22 -87z"/>
<path d="M606 844 c-23 -23 -23 -225 0 -248 22 -22 87 -21 107 2 26 28 25 222
-1 245 -23 21 -86 22 -106 1z m84 -14 c17 -17 20 -33 20 -106 0 -104 -9 -124
-54 -124 -43 0 -46 9 -46 123 0 95 4 110 30 120 25 9 29 8 50 -13z"/>
<path d="M822 848 c-17 -17 -17 -239 0 -256 16 -16 90 -16 106 0 7 7 12 38 12
70 l0 58 -35 0 c-19 0 -35 -4 -35 -10 0 -5 11 -10 25 -10 22 0 25 -4 25 -37 0
-52 -11 -65 -51 -61 l-34 3 -3 112 c-2 104 -1 113 18 123 29 15 59 4 66 -26 3
-13 10 -24 15 -24 15 0 10 37 -7 54 -18 19 -85 21 -102 4z"/>
<path d="M1037 842 c-21 -23 -22 -52 -2 -52 8 0 12 6 9 14 -9 23 40 50 65 36
17 -9 21 -20 21 -60 l0 -50 -43 0 c-24 0 -48 -5 -55 -12 -16 -16 -16 -110 0
-126 17 -17 73 -15 89 4 12 14 14 14 20 -3 4 -10 8 41 8 113 1 89 -3 134 -11
142 -19 19 -82 15 -101 -6z m93 -171 c0 -47 -22 -73 -59 -69 -22 3 -26 8 -29
42 -5 57 2 66 48 66 40 0 40 0 40 -39z"/>
<path d="M1340 720 c0 -87 4 -140 10 -140 6 0 10 28 10 65 l0 65 35 0 c19 0
35 5 35 10 0 6 -16 10 -35 10 l-35 0 0 55 0 55 45 0 c25 0 45 5 45 10 0 6 -25
10 -55 10 l-55 0 0 -140z"/>
<path d="M1526 844 c-13 -12 -16 -38 -16 -120 0 -130 6 -144 65 -144 64 0 75
20 75 140 0 117 -12 140 -70 140 -22 0 -45 -7 -54 -16z m84 -14 c17 -17 20
-33 20 -106 0 -104 -9 -124 -54 -124 -43 0 -46 9 -46 123 0 95 4 110 30 120
25 9 29 8 50 -13z"/>
<path d="M1720 850 c0 -5 11 -35 25 -67 28 -62 29 -51 -19 -165 -12 -29 -13
-38 -4 -38 7 0 22 24 33 53 12 28 24 52 29 52 5 0 18 -24 30 -52 11 -29 26
-53 33 -53 7 0 -1 28 -19 71 l-30 72 31 68 c21 49 26 69 16 69 -7 0 -21 -22
-31 -50 -10 -27 -22 -50 -27 -50 -4 0 -17 23 -29 50 -19 45 -38 66 -38 40z"/>
</g>
</svg>
